<svg preserveAspectRatio="none" width="100%" height="100%" overflow="visible" viewBox="0 0 37.2692 120.646" fill="none" xmlns="http://www.w3.org/2000/svg">
<g id="Group 10077">
<path id="Vector" d="M12.882 20.2195C11.6547 20.2348 10.084 20.0963 9.09803 19.2717C8.25358 18.5654 7.65757 18.7137 6.82246 17.9072C6.0872 17.1971 5.77349 16.3971 5.74988 15.3891C5.74154 14.8115 5.82181 14.2361 5.98787 13.6828C6.2653 12.7249 6.75421 11.819 7.12552 10.8904C7.82606 9.1383 8.44127 7.36296 9.39117 5.72278C9.93945 4.7738 10.6011 3.89504 11.3618 3.10594C13.9391 0.457287 18.9573 -1.47948 21.9657 1.50987C24.2469 1.12042 25.7175 2.41158 26.9357 4.1868C28.2998 6.17416 28.7377 8.59909 29.6738 10.7944C30.2031 12.0343 31.2043 13.3567 31.5731 14.5973C31.7795 15.2708 31.8144 15.9853 31.6737 16.6757C31.4442 17.7643 30.752 18.6089 29.8474 19.1966C28.9198 19.7997 28.4412 19.8254 27.3762 19.9756C27.2223 19.9973 26.63 20.3947 26.3769 20.4801C25.0016 20.9444 23.4981 21.0558 22.0873 20.7533C22.0156 21.538 22.0058 23.0789 22.4738 23.7506C23.6361 25.4195 30.0111 24.8978 32.5658 29.2198C33.1654 30.2342 33.5361 31.4142 33.8339 32.5487C34.375 34.6121 34.7346 36.74 35.0883 38.8434C35.6793 42.4309 36.1855 46.0319 36.6069 49.6433C36.935 52.4164 37.336 55.2138 37.2597 58.0007C37.2124 59.7369 36.699 60.1505 36.0001 61.5632C35.582 62.4093 36.3058 63.1529 34.9989 63.8267C35.5978 66.9304 35.3539 70.1274 32.3975 71.8689L32.7111 72.1292C32.8025 72.1805 33.0365 72.3093 33.0497 72.3843C33.2936 73.7576 33.4632 76.8908 33.569 78.1715L35.3328 99.2784C35.4749 101.011 35.63 102.743 35.7983 104.474C35.8916 105.456 36.1047 107.202 36.0271 108.102C34.0825 110.13 29.0631 109.655 26.4269 110.138C26.3223 111.029 26.2303 112.405 26.3131 113.285C26.442 114.649 27.7535 117.39 25.9239 118.221C24.2712 118.972 22.4758 119.904 20.733 120.392C19.6286 120.701 17.586 120.807 16.5354 120.248C15.6373 119.736 16.2581 118.657 16.6899 118.059C14.82 118.604 13.1108 119.567 11.1444 119.959C10.4177 120.23 6.20186 120.377 6.31763 119.004C6.50177 116.821 11.0887 115.283 12.319 113.561C12.9192 112.721 12.6913 111.224 12.6316 110.354C10.8358 110.248 4.69119 109.827 3.43559 108.589C3.26966 107.856 3.45788 105.427 3.4987 104.561L3.78007 98.4034L4.94942 71.6407C2.65077 72.2272 1.23253 68.6193 1.34988 66.812C1.42561 65.6464 1.59279 64.8076 1.85405 63.6788C0.429696 62.9642 1.10979 62.4744 0.932619 61.1412C0.881143 60.754 0.496884 60.232 0.361522 59.8316C-0.0109025 58.7285 -0.0210274 57.5051 0.0123035 56.3524C0.25936 53.4447 0.805542 50.4837 1.21813 47.5846C1.61409 44.7064 2.0255 41.8304 2.45236 38.9567C2.81427 36.5851 3.1984 34.0678 3.93661 31.7881C4.45596 30.2056 5.18648 28.7688 6.4474 27.6568C8.05294 26.2409 10.0218 25.6661 12.0345 25.0911C12.7675 24.8818 13.7024 24.8066 14.2703 24.2585C14.9513 23.6012 14.844 22.3593 14.8486 21.4732C14.0513 21.1498 13.5105 20.792 12.882 20.2195ZM21.873 110.786C21.8881 112.907 22.0294 113.846 20.3833 115.455C20.1163 115.716 19.4241 116.342 19.2663 116.633C19.2722 117.004 19.5977 117.064 19.9112 117.146C21.6521 117.244 24.1621 116.009 25.4072 114.901C25.5499 114.773 25.6873 114.64 25.8181 114.5C25.6288 113.379 25.5591 112.564 25.6413 111.415C25.6557 111.212 25.7208 110.504 25.6373 110.37L25.4802 110.387C24.2423 110.56 23.1201 110.73 21.873 110.786ZM16.9851 110.569C15.7635 110.466 14.5388 110.404 13.3131 110.383C13.2531 111.471 13.5428 112.658 12.9747 113.679C12.4523 114.617 10.5925 115.451 10.1597 116.275C10.1281 117.29 12.7994 116.524 13.3091 116.371C14.6651 115.88 15.9668 115.302 17.0811 114.363C16.8727 112.875 16.8963 112.082 16.9851 110.569ZM18.0106 116.63C18.118 116.469 18.3327 116.362 18.4938 116.255C18.6548 116.147 18.8598 116.04 19.1917 115.898C20.7485 114.322 21.4893 113.635 21.4137 110.81C20.968 110.815 18.8159 110.725 18.5475 110.779H18.279C17.6348 110.725 17.6869 110.618 17.6484 111.762C17.632 112.251 17.5985 112.953 17.6596 113.423C17.7865 114.4 18.118 115.342 18.0643 116.195L18.0106 116.63Z" fill="#121212"/>
<path id="Vector_2" d="M6.67101 60.9158C9.62312 61.6692 12.682 61.9131 15.7162 61.6383C17.6217 61.4509 19.2803 61.1446 21.2263 61.1544C24.0742 61.1676 26.8577 61.9906 29.6642 61.4818C29.6142 62.4561 29.4906 63.195 30.4248 63.7394C29.9488 65.1357 29.7713 66.4505 29.8075 67.9205C29.8331 68.9645 29.9285 69.8796 31.2236 69.5358C30.9435 70.1136 30.2605 71.5087 31.1578 72.0392C31.4846 72.2325 32.0677 72.009 32.3997 71.8689L32.7133 72.1293C32.5239 72.3337 32.4404 72.3666 32.4549 72.6677C32.5121 73.855 32.6232 75.0423 32.7185 76.2269L33.2714 83.0397L34.5632 98.5468C34.8558 101.641 35.1319 104.738 35.3916 107.835C35.2653 107.9 35.1385 107.964 35.0103 108.026C32.2787 109.344 30.5556 108.957 27.7675 109.234C25.888 109.42 24.1386 109.919 22.125 110.021C19.7392 110.142 17.861 109.871 15.5375 109.752C11.5079 109.545 7.94546 109.624 4.05535 108.262C4.0898 106.107 4.24054 103.75 4.33574 101.583L4.94076 87.9151C5.31489 79.0137 5.53348 69.7192 6.67101 60.9158Z" fill="#FEFEFE"/>
<path id="Vector_3" d="M24.0111 25.3222C30.7858 26.7809 32.733 28.7954 33.8086 35.6509C34.1734 37.9779 34.6626 40.4846 35.0103 42.8548C35.3831 45.3959 35.7151 47.9429 36.007 50.4946C36.3048 52.9911 36.8195 56.4335 36.4803 58.9052C36.3436 59.9045 35.6566 60.5126 35.295 61.4034C35.1582 61.7393 35.2805 62.9101 35.0156 63.0258C33.8388 63.4755 32.2637 63.2527 31.0534 63.1054C29.9732 62.9739 30.3821 61.5434 30.6523 60.8294L30.6944 60.7203C30.44 59.9616 30.0554 59.0794 29.9548 58.3043C29.6669 56.0828 29.7201 53.6801 29.657 51.4292C29.5485 48.1083 29.394 44.7891 29.1929 41.4725C29.1186 40.1828 29.0555 38.7675 28.974 37.4693C28.9621 37.2832 28.8412 37.1021 28.6781 37.0027C28.4474 36.9998 28.5572 36.9758 28.3428 37.1001C28.1864 37.9788 28.3704 40.344 28.423 41.3609C28.5466 43.6127 28.6584 45.865 28.759 48.1179C28.8319 49.8826 28.8859 51.6481 28.9207 53.414C28.97 56.0789 28.8109 58.1801 29.9594 60.6526C27.266 61.2627 24.2189 60.4258 21.4203 60.3955C19.237 60.3719 17.6369 60.6664 15.509 60.8709C12.2417 61.166 8.94794 60.8419 5.8009 59.915C5.85271 59.3312 5.92555 58.7842 6.00405 58.2057C6.65061 54.0847 7.35122 49.9889 7.53096 45.8115C7.67934 42.3639 7.28706 38.9246 7.65422 35.4863C7.68966 35.1541 7.75967 34.4919 7.36404 34.412C7.24663 34.474 7.02107 34.5953 7.00023 34.7386C6.67757 36.9599 6.6708 39.2888 6.77092 41.5228C7.02409 47.1694 6.09996 52.7692 5.21725 58.3247C5.12153 58.9269 5.003 59.7046 5.15953 60.295C5.21824 60.5099 5.75278 60.6855 5.94935 60.7584C5.82345 61.5092 5.74496 62.3362 5.6305 63.1054C4.60034 63.2316 2.9211 63.3052 1.91276 62.9121C1.29795 62.5952 1.81251 61.4257 1.59582 60.9458C0.831712 59.2536 0.559675 58.1873 0.711012 56.273C0.944131 53.3252 1.55329 50.3969 1.96562 47.4594C2.61297 42.8475 3.14094 38.1863 4.16013 33.6356C4.45985 32.2956 4.79842 31.328 5.41737 30.1084C6.89261 27.2016 9.90396 26.4336 12.8585 25.574C12.901 25.655 12.9454 25.735 12.9916 25.8139C13.8452 27.2619 15.2342 27.9251 16.7934 28.3279C16.9814 29.5033 17.1931 30.7129 17.2753 31.9017C17.3009 32.2687 17.1898 32.9461 17.3653 33.1991C17.604 33.2976 17.4843 33.2824 17.7381 33.2495C17.8453 33.1602 17.9478 33.0859 17.9504 32.933C17.9787 31.3103 18.335 29.9331 18.7591 28.3719C21.0238 28.0652 22.6016 27.0799 24.0111 25.3222Z" fill="#EADDD6"/>
<path id="Vector_4" d="M13.54 27.5019C13.9316 27.6026 14.6712 28.0168 14.7793 28.4387C14.296 28.3692 13.6524 28.0002 13.54 27.5019Z" fill="#121212"/>
<path id="Vector_5" d="M15.3478 28.5072C15.8091 28.6018 16.2794 28.603 16.3936 29.1086C15.984 29.1131 15.2813 29.0425 15.3478 28.5072Z" fill="#121212"/>
<path id="Vector_6" d="M19.9042 28.7192L20.0757 28.6877L20.1599 28.7638L20.1402 28.902C19.8844 29.1538 19.8075 29.1395 19.4354 29.2127C19.1751 29.1889 19.2652 29.2466 19.108 29.1054L19.156 28.9868C19.4459 28.7781 19.5492 28.7836 19.9042 28.7192Z" fill="#121212"/>
<path id="Vector_7" d="M21.8035 27.977C21.9041 28.126 21.8785 28.0459 21.8568 28.2282C21.6181 28.5379 21.2947 28.5946 20.9239 28.6925C20.845 28.5597 20.8713 28.6307 20.8746 28.4695C21.1362 28.1867 21.4393 28.1008 21.8035 27.977Z" fill="#121212"/>
<path id="Vector_8" d="M23.4192 26.775C23.5612 26.8431 23.504 26.7933 23.5724 26.9505C23.4528 27.2844 23.1359 27.4446 22.84 27.6177C22.6809 27.6108 22.7539 27.635 22.6218 27.5438C22.6823 27.2476 23.1589 26.9628 23.4192 26.775Z" fill="#121212"/>
<path id="Vector_9" d="M12.329 26.0358C12.7217 26.1102 13.0289 26.6516 13.0292 27.038C12.5662 26.9577 12.2715 26.4927 12.329 26.0358Z" fill="#121212"/>
<path id="Vector_10" d="M24.2975 25.7811C24.4605 25.9085 24.4079 25.8275 24.4513 26.0376C24.3481 26.2925 24.258 26.3382 24.0418 26.5258C23.88 26.4181 23.9333 26.4894 23.8741 26.3071C23.9385 26.0825 24.1233 25.947 24.2975 25.7811Z" fill="#121212"/>
<path id="Vector_11" d="M20.1567 5.23357C21.3085 6.3064 21.9981 8.04763 22.7002 9.46758C23.0651 10.206 23.4609 10.9291 23.8855 11.6349C24.1748 12.1241 24.2636 12.9956 24.4858 13.1831C25.3417 13.2799 26.2279 11.9991 26.3693 14.2408C26.483 16.0371 24.23 16.0489 24.1926 16.1433C23.4839 17.9289 22.9251 18.8103 21.486 20.0922C21.413 21.0204 21.367 22.2752 21.5826 23.189C21.8325 24.2478 22.4432 24.6258 23.2873 25.1428C21.6162 27.0724 20.5511 27.1576 18.2903 27.8548C18.0549 28.0558 17.8459 29.3722 17.6901 29.7959C17.6165 29.2714 17.4975 28.1529 17.2555 27.7386C15.5927 27.3093 14.5186 26.9057 13.5561 25.4301C15.4807 24.5546 15.4478 23.6952 15.5038 21.8005C15.9619 21.9241 16.3494 22.0749 16.8085 21.9525C16.9728 21.7995 16.9229 21.8919 16.9544 21.6613C16.9005 21.5593 16.8637 21.4584 16.7322 21.4267C11.7958 20.2331 11.0359 16.5894 11.1147 11.941C12.818 11.0153 12.8426 10.977 14.8337 10.894C15.0709 10.7104 15.014 10.8215 15.0821 10.5887C14.9842 10.4274 14.6555 10.3338 14.4258 10.1971C14.4647 10.0383 15.2684 9.51182 15.4826 9.3501C16.3128 8.7176 17.1024 8.0333 17.8465 7.30127C18.6959 6.48114 19.1693 5.90387 20.1567 5.23357Z" fill="#FAF7F2"/>
<path id="Vector_12" d="M15.815 17.6191C16.1827 17.7071 16.6173 17.9203 16.9887 17.9732C17.4068 18.0328 18.437 17.4692 18.7006 17.9036C18.6783 18.0827 18.6224 18.115 18.5034 18.2554C17.867 18.5911 16.3213 18.9217 15.7248 18.1033C15.622 17.9623 15.7454 17.7709 15.815 17.6191Z" fill="#121212"/>
<path id="Vector_13" d="M16.5365 14.0854C16.6174 14.0921 16.7456 14.1183 16.8297 14.1323C17.1841 14.4866 16.6535 15.1263 16.4346 15.4926C16.6654 15.6288 16.8218 15.6962 16.9934 15.8953C17.0335 16.1494 17.0263 16.0629 16.902 16.3349C15.2782 16.2806 16.0906 14.8488 16.5365 14.0854Z" fill="#121212"/>
<path id="Vector_14" d="M19.4226 10.4447C20.034 10.3794 21.3081 10.4495 21.5605 11.1186C21.481 11.3892 21.5237 11.2947 21.2936 11.5037C20.5277 11.0405 20.3424 11.1623 19.491 11.0114C19.2944 10.9765 19.2767 10.932 19.2031 10.8011C19.2471 10.5669 19.228 10.6438 19.4226 10.4447Z" fill="#121212"/>
<path id="Vector_15" d="M19.9883 12.7067C20.8285 12.8423 20.8765 13.6106 20.1914 14.0597C19.3079 13.8747 19.2901 13.1482 19.9883 12.7067Z" fill="#121212"/>
<path id="Vector_16" d="M13.8651 12.5166C14.794 12.4453 14.8748 13.2007 14.3256 13.7565C13.414 13.8178 13.3541 13.09 13.8651 12.5166Z" fill="#121212"/>
<path id="Vector_17" d="M31.1322 63.8765C32.1604 64.058 33.3154 64.0271 34.3581 63.9863C34.5994 66.7119 34.9964 68.3272 33.0794 70.615C33.1767 70.4013 33.2694 70.1857 33.3588 69.9688C33.583 69.4146 33.9952 68.2108 33.7553 67.6428C33.5685 67.4936 33.6704 67.5238 33.4456 67.5311C33.0775 67.7789 33.0452 68.9406 32.7948 69.6065L32.7606 69.6953C32.6186 69.9977 32.4608 70.2929 32.2886 70.5795C32.1328 70.8326 31.8244 71.2908 31.5339 71.3625L31.4438 71.2921C31.3721 70.9845 31.5615 70.4651 31.7041 70.1535C32.1715 69.1279 32.2261 68.0419 32.1702 66.9295C32.1604 66.7389 31.9789 66.6127 31.7797 66.6449C31.284 67.0709 31.3425 68.6349 30.8068 68.9498C30.407 68.8071 30.5431 68.1471 30.5293 67.7789C30.4754 66.3642 30.7154 65.213 31.1322 63.8765Z" fill="#FEFEFE"/>
<path id="Vector_18" d="M2.51808 63.811C3.6301 63.9773 4.43064 63.9746 5.53844 63.8576C5.52253 64.4947 5.18771 68.7166 4.95321 68.9769C4.10423 68.896 4.40177 67.1007 3.77131 66.3755C3.55562 66.2953 3.66172 66.3019 3.44228 66.3446C3.27142 66.6562 3.45773 66.9442 3.34985 67.1118C3.15295 67.4175 3.18372 66.9941 2.95145 67.5549C3.09405 70.1675 4.18154 69.6501 4.44404 71.0083L4.37804 71.0806C3.76592 71.0044 3.05953 70.1681 2.75429 69.6593C1.64162 67.8028 2.03199 65.8009 2.51808 63.811Z" fill="#FEFEFE"/>
<path id="Vector_19" d="M3.60567 67.7219C3.82729 68.0604 3.97718 68.7751 4.06192 69.1748C3.54769 68.8033 3.60916 68.2984 3.60567 67.7219Z" fill="#FEFEFE"/>
<path id="Vector_20" d="M4.3347 69.5709C4.55263 69.6025 4.75196 69.6104 4.94163 69.7155C5.05352 69.9654 4.99876 69.9956 4.96865 70.3144C4.79193 70.2139 4.48117 69.7616 4.3347 69.5709Z" fill="#FEFEFE"/>
</g>
</svg>
