<svg preserveAspectRatio="none" width="100%" height="100%" overflow="visible" viewBox="0 0 50.3018 100.538" fill="none" xmlns="http://www.w3.org/2000/svg">
<g id="Group 10076">
<path id="Vector" d="M15.3958 14.7285C13.9885 14.4843 13.4204 10.2435 13.3722 9.07101C13.3506 8.58304 13.3924 8.09432 13.4967 7.61716C14.2021 4.4824 16.5193 5.06656 18.6191 3.67264C19.7051 2.83429 20.3388 1.61652 21.5706 0.927677C24.378 -0.642236 27.0366 -0.285619 28.7911 2.50462C30.2719 1.99657 32.0292 2.22029 33.0247 3.54736C33.4972 4.17686 33.6666 4.96152 34.073 5.63486C34.6041 6.51375 35.5267 7.08679 35.8201 8.10497C36.1089 9.09919 36.0897 10.2266 35.5943 11.1545C35.3402 11.6152 35.0739 12.0587 34.8337 12.5277C34.5535 13.0749 34.7378 13.9554 34.0352 14.1276C33.9846 14.4547 33.9516 14.503 33.7353 14.7596C35.206 15.0781 35.9341 16.1035 35.5741 17.609C35.3908 18.3849 34.8933 19.0497 34.2009 19.4444C33.6932 19.7353 33.3246 19.7995 32.7584 19.8156C32.2391 22.3474 31.8428 23.9544 29.7734 25.6023C29.7537 26.0672 29.7483 26.4428 29.7617 26.9077C31.1215 26.9429 32.0079 28.1543 32.4255 29.3276C34.5812 30.0339 36.7198 30.7919 38.8393 31.6008C40.7787 32.3271 42.8337 32.7188 43.7531 34.7913C44.5414 36.5685 45.0155 38.4145 45.5396 40.2822C47.3773 46.9508 48.694 53.6767 48.7628 60.6178C48.7771 62.1098 48.815 63.1517 48.7308 64.6527C50.7379 65.6019 50.6281 67.1626 49.4851 68.7888C49.6102 69.2703 49.7295 69.6901 49.6917 70.1913C49.5783 71.6924 48.5385 72.6213 47.1738 71.6764C46.7216 72.9143 43.792 80.3204 43.1272 80.5548C43.0004 80.5995 42.8508 80.5644 42.7203 80.5479C42.6787 80.3012 42.6894 80.199 42.8017 79.9795C43.4037 78.7981 44.0274 77.6283 44.5696 76.4176C44.9936 75.4721 46.3567 71.825 46.7594 71.3451C46.7711 71.3307 46.7823 71.3158 46.794 71.3014C45.9982 70.3991 45.2461 70.1157 44.0402 70.0001C43.6897 69.9665 42.8348 70.064 42.6132 69.9426C42.4933 69.7711 42.529 69.8659 42.5232 69.6411C42.7229 69.1894 43.1155 69.3007 43.5416 69.2949C44.3454 69.2831 45.2072 69.4062 45.9397 69.7556C46.3285 69.9431 46.6859 70.1897 46.9997 70.4864C47.3677 70.83 47.8056 71.6503 48.3931 71.4047C48.9391 71.1768 49.1964 70.3522 49.0589 69.8169C48.8331 68.9401 48.7692 68.5443 49.3764 67.8071C50.0923 66.9389 49.5266 65.5199 48.4671 65.2386C46.7376 64.722 44.992 65.1172 43.295 65.5375C43.0841 65.5897 42.9892 65.3116 42.9983 65.1326C43.1917 64.8162 43.752 64.7092 44.1078 64.6245C45.5178 64.2878 46.6955 64.2356 48.1236 64.4311C48.2157 61.1899 48.0921 57.946 47.7534 54.7207C47.5744 53.0423 47.3342 51.3703 47.0332 49.7094C46.402 46.2524 45.6019 42.8291 44.6352 39.4509C44.0892 37.5165 43.3893 34.006 41.3092 33.2221C39.0225 32.3604 36.7081 31.4517 34.3905 30.6669C33.7401 30.4422 33.0753 30.2366 32.4399 29.9973C32.3408 31.5846 31.9141 33.1232 31.471 34.6246C31.2371 35.4167 30.8669 36.6442 29.9721 35.5722C29.6402 35.1742 27.1543 32.812 27.125 32.7247C27.2203 32.4421 27.6363 32.4084 27.8393 32.544C28.8492 33.2184 29.6557 34.3106 30.5548 35.1124C30.9926 33.853 32.1725 30.1647 31.5897 28.9673C31.2968 28.3656 30.7274 27.7721 30.0871 27.558C29.9939 27.5271 29.8996 27.4983 29.8048 27.4717C29.8085 27.9574 29.7963 28.0651 29.9433 28.5327C28.6202 30.4226 26.6578 32.1449 25.2921 34.0517C25.1499 34.2503 25.0108 34.3093 24.7664 34.2647C24.2635 33.8415 20.9743 29.282 20.6012 28.5986C20.6869 28.3739 20.7814 28.2003 20.7592 27.9668L20.6906 27.8631C20.3874 27.8257 20.2401 27.9729 20.004 28.1448C18.9806 28.89 18.7877 29.7496 18.815 30.952C18.8449 32.2683 18.91 33.5669 19.0281 34.8819C19.515 34.5809 22.4766 32.6441 22.8217 32.7357C22.9662 32.774 23.0242 32.8464 23.0965 32.9692C23.0993 33.0608 23.1138 33.1975 23.0144 33.2584C21.7431 34.0374 20.4676 34.8222 19.1939 35.5988C19.0136 35.7087 18.553 35.7936 18.5037 35.561C18.1767 34.0158 18.0629 31.6957 18.1452 30.1236C16.5946 30.6981 15.0588 31.3115 13.5391 31.9633C10.8932 33.0743 8.877 33.7335 7.69322 36.5831C6.65165 39.0904 5.98044 41.8292 5.37182 44.4655C4.34336 48.9205 3.39208 53.4349 2.84088 57.9747C2.56667 60.2332 2.45747 62.5348 2.35435 64.8035C3.28081 64.6341 7.08492 64.1019 7.3994 65.326C7.22495 65.6424 6.74306 65.5172 6.45643 65.4256C5.12302 64.9989 0.122658 65.1076 0.70033 67.4391C0.870888 68.1273 1.48281 68.5592 0.994464 69.5633C0.795408 70.0603 1.54369 71.0399 2.17564 70.7256C2.73504 70.5434 3.0728 70.0416 3.51987 69.6773C4.42267 68.9348 5.48661 68.4138 6.62672 68.1555C7.01215 68.0687 7.51163 67.9142 7.78547 68.2887C7.85483 68.8735 6.99596 68.7494 6.59396 68.8602C5.38365 69.1942 4.19975 69.8771 3.33626 70.7922C4.20364 73.2674 5.2116 75.6911 6.35517 78.0518C6.62076 78.5925 7.13781 79.6599 7.47957 80.142C8.09985 78.7011 8.75859 77.3423 9.62976 76.0298C8.99329 75.2042 9.08623 74.8063 9.27352 73.8214C8.69915 72.624 8.22913 71.6412 8.20186 70.2707C8.15914 68.1209 8.62212 66.0057 8.71103 63.8617C8.80057 61.9335 8.85271 60.0233 8.93991 58.1026C9.0759 55.3961 9.24033 52.6913 9.43321 49.988C9.54118 48.438 9.66183 46.8906 9.72298 45.3379C9.73992 44.9075 9.64169 44.2116 10.068 44.0419C10.278 44.0905 10.1869 44.0443 10.3502 44.1898C10.5463 44.6354 10.2389 48.5168 10.1943 49.1927C9.96774 52.3717 9.77475 55.5527 9.61543 58.7359C9.53463 60.4319 9.49627 62.1322 9.42639 63.8292C9.3303 66.1617 8.74645 68.433 8.94135 70.7613C8.98764 71.8463 9.6215 72.69 9.92544 73.6845C10.0115 73.9578 9.70652 74.9315 9.88421 75.1408C10.8908 76.3255 11.2005 76.6419 12.1699 78.0113C14.0221 80.6283 18.0619 82.8921 21.2258 82.9448C21.833 82.955 23.8752 79.0681 24.4782 78.9733C25.038 79.2583 26.2685 82.7419 26.7138 82.9161C27.8675 83.3683 31.2014 82.3632 32.3227 82.0532C35.5091 81.1721 37.1694 79.3978 38.6672 76.6046C38.9378 76.0991 38.8446 75.6367 39.0167 75.111C39.8668 73.8443 40.8154 71.842 40.5848 70.2579C40.3946 68.9465 40.9673 68.6509 40.9795 67.9653C41.0834 62.097 40.6269 56.1876 40.1848 50.3374C40.1171 49.4394 40.0426 48.5424 39.9616 47.6459C39.9137 47.1196 39.6926 45.8844 40.0143 45.4993C40.2056 45.43 40.1081 45.4375 40.3174 45.4955C40.4037 45.5792 40.4756 45.6196 40.4911 45.7411C40.6386 46.8863 40.7132 48.1892 40.8165 49.3344C41.313 54.791 41.6144 60.2641 41.721 65.7425C41.7322 66.5016 41.7726 67.332 41.6901 68.0783C41.6587 68.3584 41.3082 68.8804 41.3039 69.1633C41.281 70.602 41.3279 71.9108 40.8091 73.2872C40.5214 74.0499 40.0671 74.6321 39.6974 75.347C39.4758 75.8301 39.6574 76.1603 39.2904 76.9188C40.0282 77.8691 41.6134 80.1148 42.4081 80.8808C42.6036 81.1407 43.0207 81.6404 43.0414 81.9504C43.1576 83.6714 42.9088 85.6822 42.7575 87.4027L41.9804 95.8789C41.844 97.3704 41.6565 99.0563 41.5899 100.538H26.2338C26.1065 99.7397 26.0192 98.6456 25.9222 97.8168C25.7241 96.0888 25.5014 94.364 25.2548 92.6425C25.1834 92.1327 25.0327 90.1209 24.671 89.9078L24.5639 89.9552C24.3354 90.335 24.3557 91.3375 24.3242 91.803L24.117 94.8509C24.0068 96.736 23.8547 98.652 23.7216 100.538H9.55204C9.00175 96.8154 8.59885 93.0638 8.1056 89.3378C7.94479 88.1165 7.74978 86.8999 7.52085 85.6896C7.15885 83.6975 6.98254 83.0413 7.21824 81.0273C5.61019 78.4513 3.76526 74.108 2.80525 71.2044C0.779694 71.8271 0.031946 70.5392 0.554807 68.6913C0.075571 67.9723 -0.178723 67.2713 0.144816 66.3924C0.420948 65.6424 1.05695 65.3324 1.73694 65.0144C1.68139 64.429 1.75186 63.3109 1.77929 62.6835C2.06868 56.0609 3.47384 49.5352 4.98889 43.0999C5.54659 40.731 6.25274 38.1182 7.26144 35.9025C7.68288 34.9768 8.37135 34.1132 9.16592 33.4763C10.5163 32.394 12.2289 31.8127 13.8132 31.1487C15.2427 30.5495 16.7784 29.9266 18.2481 29.43C18.6707 28.2277 19.5895 27.4332 20.814 27.127C20.8374 26.7475 20.826 26.341 20.8224 25.959C18.3312 24.7079 17.1832 22.6915 16.7218 19.9987C13.489 20.0018 12.6604 15.9115 15.6133 14.9294C15.4445 14.8052 15.5265 14.9903 15.3958 14.7285Z" fill="#121212"/>
<path id="Vector_2" d="M15.3943 14.7285C13.987 14.4843 13.4189 10.2435 13.3707 9.07101C13.3491 8.58304 13.3909 8.09432 13.4952 7.61716C14.2006 4.4824 16.5178 5.06656 18.6176 3.67264C19.7036 2.83429 20.3373 1.61652 21.5691 0.927677C24.3765 -0.642236 27.0351 -0.285619 28.7896 2.50462C30.2704 1.99657 32.0277 2.22029 33.0232 3.54736C33.4957 4.17686 33.6651 4.96152 34.0715 5.63486C34.6026 6.51375 35.5251 7.08679 35.8186 8.10497C36.1073 9.09919 36.0882 10.2266 35.5928 11.1545C35.3387 11.6152 35.0724 12.0587 34.8322 12.5277C34.552 13.0749 34.7363 13.9554 34.0337 14.1276C33.9831 14.4547 33.9501 14.503 33.7338 14.7596C33.5037 14.8121 33.2049 14.8709 32.986 14.9432C33.0163 14.1728 33.1031 12.2531 32.5678 11.6757C32.2013 11.2726 31.7443 10.9813 31.4934 10.4813C30.8313 9.16092 31.2916 7.47425 29.9732 6.4949C29.5135 6.15314 28.4168 5.89927 28.216 6.62476C28.2692 6.81684 28.2192 6.73401 28.3928 6.86739C28.6261 6.92992 28.8163 6.86291 29.0586 6.81321C29.5801 7.00732 29.9349 7.268 30.1176 7.77787C30.606 9.1378 30.3136 10.6013 31.5376 11.656C31.7006 11.7966 32.0527 12.1349 32.2083 12.3095C32.3015 13.1985 32.3526 14.0915 32.3611 14.9853C32.1108 15.0076 31.861 15.0336 31.6117 15.0633C31.5797 14.8573 31.5217 14.2861 31.3054 14.2012C29.9764 13.6791 28.1259 13.8379 26.7234 13.9862C25.9101 14.0723 25.8499 14.4768 25.7849 15.1519C25.0354 14.9714 24.9667 14.9476 24.2183 15.1732C24.1986 14.9503 24.1747 14.3482 23.9339 14.2304C22.9371 13.7461 21.5992 13.8856 20.5102 13.9033C20.1004 13.9099 19.685 13.9632 19.2826 14.023C18.4772 14.1428 18.4934 14.4501 18.3794 15.1218C17.921 15.0773 17.4997 14.9782 17.0537 15.0112C17.1474 13.9867 17.1762 12.9995 18.0445 12.2714C18.6691 11.7477 19.4212 11.6968 20.1775 11.4908C21.2527 11.198 22.2417 10.5691 22.9478 9.7003C23.2458 9.33361 23.482 8.83834 23.6729 8.38228C24.05 7.48171 24.3616 5.74805 25.6539 5.85719C26.3192 5.91334 26.5178 6.68937 27.1011 6.59839C27.1773 6.53346 27.2923 6.4419 27.2508 6.33435C26.6446 4.77914 24.5704 4.84077 23.8172 6.22968C23.1761 7.41193 23.1294 8.3932 22.2839 9.41165C21.6022 10.199 20.6137 10.6975 19.5987 10.9193C17.1944 11.376 16.4271 12.6353 16.4269 15.0066C16.3406 14.9986 15.631 14.9412 15.6118 14.9294C15.443 14.8052 15.525 14.9903 15.3943 14.7285Z" fill="#FAF7F2"/>
<path id="Vector_3" d="M15.3943 14.7285C13.987 14.4843 13.4189 10.2435 13.3707 9.07101C13.3491 8.58304 13.3909 8.09432 13.4952 7.61716C14.2006 4.4824 16.5178 5.06656 18.6176 3.67264C19.7036 2.83429 20.3373 1.61652 21.5691 0.927677C24.3765 -0.642236 27.0351 -0.285619 28.7896 2.50462C30.2704 1.99657 32.0277 2.22029 33.0232 3.54736C33.4957 4.17686 33.6651 4.96152 34.0715 5.63486C34.6026 6.51375 35.5251 7.08679 35.8186 8.10497C36.1073 9.09919 36.0882 10.2266 35.5928 11.1545C35.3387 11.6152 35.0724 12.0587 34.8322 12.5277C34.552 13.0749 34.7363 13.9554 34.0337 14.1276C33.8094 13.7615 33.8579 13.4624 33.9735 13.0536C34.4199 11.4729 35.5571 10.7629 35.3414 8.97145C35.2801 7.63602 34.4753 7.29043 33.7951 6.39827C32.7718 5.05639 33.0062 3.44802 30.956 2.94769C29.9258 2.69633 29.4757 3.10829 28.5414 3.13854C28.4344 3.14201 27.6423 1.92573 27.4628 1.80114C27.1847 1.54359 26.7916 1.16801 26.4427 1.0137C24.9752 0.364121 23.2264 0.682067 21.8984 1.48228C20.7058 2.20084 20.0546 3.42016 19.0596 4.16754C17.1932 5.56945 14.7954 4.87001 14.1287 7.80381C14.0316 8.23169 13.9933 8.67082 14.0148 9.10904C14.0752 10.4731 14.519 12.9578 15.3628 14.0589C15.5782 14.34 15.5471 14.4253 15.3943 14.7285Z" fill="#121212"/>
<path id="Vector_4" d="M18.7015 8.85287C18.8137 8.85175 18.838 8.86187 18.9498 8.88105C19.1152 9.03808 19.0606 8.94753 19.1281 9.15814C18.9886 9.88245 17.0247 10.4565 16.3796 10.592C16.0862 10.5944 16.0183 10.5509 15.9173 10.2885C16.0109 9.81267 16.783 9.87462 17.1753 9.72537C17.7399 9.5106 18.2068 9.18653 18.7015 8.85287Z" fill="#121212"/>
<path id="Vector_5" d="M21.6209 12.35C21.9412 12.3328 23.2289 12.3592 22.98 12.9337C22.6775 13.1395 22.487 13.0602 22.1225 13.0067C21.6969 12.9918 20.3549 13.3255 20.6415 12.6177C20.9282 12.3828 21.257 12.3852 21.6209 12.35Z" fill="#121212"/>
<path id="Vector_6" d="M27.7624 12.3482C28.2317 12.3182 29.1154 12.2614 29.3066 12.8096C29.1718 13.1788 28.7819 13.0428 28.4836 12.9788C28.0436 12.9534 27.0838 13.1923 26.8862 12.8049C27.0007 12.3667 27.3869 12.394 27.7624 12.3482Z" fill="#121212"/>
<path id="Vector_7" d="M33.5153 15.4827C35.141 15.3703 35.4393 17.4554 34.4581 18.4394C33.7998 19.1 33.5809 19.1221 32.6546 19.1277C32.1315 19.1309 32.1821 19.7033 32.067 20.0616C31.7501 21.4967 31.4065 23.0938 30.363 24.1937C30.1548 24.4133 29.3904 25.0925 29.2903 25.2227C29.0117 25.5838 29.1209 27.9508 29.2018 28.3965C27.8281 30.0815 26.3356 31.6419 24.9219 33.3972C23.7579 31.7758 22.5654 30.214 21.3988 28.5793C21.4632 27.7779 21.4866 26.6681 21.4257 25.8616C21.3907 25.3976 20.4609 25.0647 19.9232 24.6829C18.5332 23.5819 17.9159 22.2001 17.4778 20.5113C17.4175 20.2788 17.3627 19.6192 17.2484 19.4946C17.0856 19.317 16.2591 19.376 15.9218 19.259C15.3453 19.0927 14.9722 18.7937 14.6901 18.2573C14.2159 17.3554 14.4566 16.1233 15.4617 15.7083C15.9429 15.5096 16.2895 15.6889 16.7325 15.8698L17.1991 15.6565C17.6769 15.7302 17.8942 15.7636 18.381 15.7773C18.391 17.6362 18.6606 17.9885 20.5827 17.9702C21.1477 17.9825 21.7138 17.9768 22.2768 17.956C23.9945 17.8926 24.1346 17.59 24.2199 15.9406C24.8367 15.6129 25.1627 15.7025 25.7992 15.8681C25.8908 17.2827 25.8967 17.9154 27.5735 17.936C28.5781 17.9483 30.3258 18.097 31.2137 17.5698C31.5477 17.3714 31.6084 16.1395 31.6196 15.7536C32.6242 15.5267 32.5411 15.8656 33.5153 15.4827Z" fill="#FAF7F2"/>
<path id="Vector_8" d="M24.7366 16.0836C24.8591 16.125 24.9033 16.1495 25.0216 16.2049C25.3146 16.5853 24.9129 19.1189 25.0999 19.6785C25.159 19.8564 25.1681 19.9238 25.1755 20.1041C25.1159 20.2993 25.0466 20.3304 24.8884 20.4596C24.4405 20.2004 24.3696 19.799 24.3931 19.295C24.4383 18.3287 24.3701 17.3359 24.5097 16.3829C24.5236 16.2918 24.6695 16.1494 24.7366 16.0836Z" fill="#121212"/>
<path id="Vector_9" d="M25.8519 22.5724C26.1736 22.6151 26.2365 23.0117 26.0458 23.1231C25.4684 23.4597 24.5352 23.3556 23.905 23.2487C23.7423 23.1761 23.4907 23.0516 23.5168 22.847C23.7859 22.5151 24.6763 22.7298 25.095 22.6905C25.3821 22.6635 25.5696 22.6279 25.8519 22.5724Z" fill="#121212"/>
<path id="Vector_10" d="M20.3017 14.5908C21.1855 14.5518 22.5618 14.4607 23.402 14.7329C23.7352 14.8409 23.5788 16.8096 23.3442 17.0975C23.2199 17.2501 22.6505 17.2589 22.4387 17.2758C21.8031 17.3007 19.655 17.521 19.253 16.9869C18.9378 16.5681 19.0465 15.2508 19.1132 14.7158C19.513 14.6508 19.8981 14.6241 20.3017 14.5908Z" fill="#FAF7F2"/>
<path id="Vector_11" d="M21.3125 15.3548C21.4993 15.3122 21.6945 15.3736 21.8232 15.5154C21.952 15.6571 21.9943 15.8573 21.934 16.0391C21.8737 16.2208 21.72 16.3559 21.5321 16.3926C21.2478 16.448 20.9716 16.2651 20.9117 15.9817C20.8517 15.6984 21.0302 15.4193 21.3125 15.3548Z" fill="#121212"/>
<path id="Vector_12" d="M28.3972 14.538C29.0012 14.4863 30.3094 14.5901 30.8778 14.7059C31.0253 15.5295 30.9955 16.3243 30.7478 17.1219C30.2498 17.2389 29.6458 17.2577 29.1285 17.2925C28.6257 17.3129 28.0563 17.2827 27.5694 17.2947C26.5462 17.32 26.4844 16.7116 26.4588 15.8575C26.4498 15.5645 26.3891 14.9688 26.5659 14.7289C26.9745 14.5416 27.9119 14.5555 28.3972 14.538Z" fill="#FAF7F2"/>
<path id="Vector_13" d="M28.4037 15.3392C28.6839 15.2535 28.9801 15.4118 29.0647 15.6921C29.1489 15.9725 28.9891 16.268 28.7084 16.3511C28.4293 16.4335 28.1363 16.2751 28.0527 15.9966C27.9691 15.7182 28.1257 15.4243 28.4037 15.3392Z" fill="#121212"/>
<path id="Vector_14" d="M24.2988 35.4929C24.4773 35.5523 24.4682 35.5432 24.6035 35.6715C24.7031 35.9544 24.4496 36.2895 24.31 36.5509C23.9174 37.2874 24.0751 38.0292 24.0059 38.816C23.9936 38.9512 23.8144 39.0277 23.6928 39.0993C22.843 38.4809 23.482 35.9444 24.2988 35.4929Z" fill="#121212"/>
<path id="Vector_15" d="M23.9106 70.5318C24.219 70.4322 24.5498 70.5995 24.6531 70.9068C24.7559 71.2136 24.5924 71.5465 24.2861 71.6525C24.0853 71.7223 23.8625 71.6786 23.7027 71.5385C23.543 71.3979 23.4709 71.1827 23.5139 70.9745C23.5569 70.7667 23.7084 70.5973 23.9106 70.5318Z" fill="#121212"/>
<path id="Vector_16" d="M24.0806 52.3152C24.3895 52.2274 24.7107 52.4069 24.797 52.7163C24.8828 53.0253 24.7011 53.3454 24.3911 53.4296C24.0843 53.5127 23.768 53.3326 23.6826 53.0269C23.5974 52.7206 23.7751 52.4026 24.0806 52.3152Z" fill="#121212"/>
<path id="Vector_17" d="M23.9762 61.3119C24.267 61.1878 24.6042 61.3209 24.7315 61.6102C24.8594 61.8999 24.7305 62.2382 24.4428 62.3692C24.2532 62.4555 24.0321 62.4337 23.8637 62.3111C23.6952 62.1892 23.6055 61.9857 23.6288 61.779C23.6521 61.5718 23.7848 61.3939 23.9762 61.3119Z" fill="#121212"/>
<path id="Vector_18" d="M24.2383 44.2133C24.5414 44.1558 24.836 44.347 24.9068 44.6472C24.9777 44.9476 24.7992 45.2501 24.5025 45.3343C24.2985 45.3918 24.0796 45.3327 23.9321 45.1803C23.7846 45.0285 23.7325 44.8075 23.7965 44.6055C23.8605 44.4035 24.0301 44.2529 24.2383 44.2133Z" fill="#121212"/>
</g>
</svg>
