<svg preserveAspectRatio="none" width="100%" height="100%" overflow="visible" viewBox="0 0 43.4288 140" fill="none" xmlns="http://www.w3.org/2000/svg">
<g id="Group 10079">
<path id="Vector" d="M11.4724 12.1279C10.198 10.5682 10.1915 10.0776 10.1639 8.07799C10.1998 7.78841 10.0559 7.26201 10.0992 6.99833C10.2803 5.94725 11.2155 5.28407 11.8403 4.50212C12.0542 4.23442 12.314 3.81177 12.502 3.51738C14.4954 0.396604 18.9708 -1.08004 22.2382 0.896636C23.9273 0.804953 25.1482 0.905717 26.493 2.07414C27.4067 2.83319 27.8268 3.89248 28.3844 4.90099C28.7658 5.59016 29.2396 6.16157 29.5183 6.91715C29.9471 8.08092 30.0411 9.43816 29.6163 10.6167C29.3912 11.2397 29.0145 11.8188 28.8384 12.4585C28.547 14.5733 28.8163 16.2692 26.1961 16.9424L25.8747 17.026C25.5667 17.7828 25.1261 18.4869 24.8363 19.2399C24.4588 20.219 24.4983 21.877 24.9073 22.8411C25.0724 23.2303 25.243 23.3843 25.6315 23.5391C30.0553 25.299 37.0765 26.4489 39.2007 31.1949C41.0597 35.3477 43.42 48.1195 43.4287 52.7919C43.4335 55.1506 42.8886 57.4218 42.4669 59.726C42.196 61.2112 42.016 62.7632 41.4798 64.182C41.0526 65.3123 40.1018 66.0133 39.4598 66.9895C39.0657 67.5881 38.9314 68.3968 38.4868 68.9401C38.1173 69.3918 37.5827 69.65 37.067 69.898C36.7448 70.4207 35.7703 72.0602 35.7127 72.5656C35.4781 74.6266 35.5271 76.792 35.5713 78.8546C35.614 80.8968 35.644 82.9389 35.6606 84.9811L36.0317 115.172L36.1399 124.022C36.1604 125.266 36.282 127.866 36.1612 129.033C35.7095 129.501 35.4371 129.662 34.8432 129.961C35.0304 131.491 35.73 135.178 34.7856 136.482C34.3757 137.048 32.7197 137.867 32.0746 138.297C29.6431 139.915 23.8594 140.953 21.5835 138.707C20.9257 135.926 22.1805 135.167 23.7591 133.139C24.2306 133.012 25.348 130.734 25.6118 130.21C24.9863 129.91 24.6475 129.715 24.0908 129.314C24.075 128.471 24.0261 127.575 23.9921 126.728L23.9281 123.866C24.015 120.17 22.9489 109.814 22.9489 109.814L22.8045 107.215C22.8045 107.215 22.5121 103.402 21.934 98.6028C21.8303 97.7432 20.9646 89.9705 20.7829 89.7426C20.4941 89.165 20.4941 88.443 20.2053 90.4646C20.2053 91.0422 20.9281 109.957 21.0055 110.265C21.1263 112.097 20.9147 113.652 20.936 115.367C20.9723 118.312 21.0142 121.455 21.2771 124.377C21.3372 125.333 21.3395 126.286 21.4003 127.241C21.3743 127.96 21.5204 128.433 20.9131 128.899C20.2987 129.298 20.7079 129.901 20.7196 130.551C20.7251 130.856 20.7301 131.029 20.7829 131.33C20.8232 131.559 20.8505 131.688 20.9273 131.908C20.9603 132.002 21.0213 132.145 21.0213 132.145C21.0213 132.145 21.4422 135.227 19.4988 135.644C17.0514 136.176 14.9462 136.791 12.5744 137.611C10.1045 138.464 6.70642 138.535 4.21748 137.703C2.91939 137.269 2.84902 135.4 3.45424 134.517C4.43227 133.091 6.78405 132.302 8.08909 131.161C9.10416 130.34 9.39105 130.098 10.2449 129.189C9.99785 129.041 9.43535 128.731 9.26667 128.538C8.94724 127.146 9.23548 125.27 9.2016 123.81C9.1712 122.503 9.09286 121.214 8.99613 119.911C8.7259 116.684 8.43734 113.457 8.13047 110.233L6.66181 94.2907C6.1031 88.4344 5.58309 82.5662 5.00685 76.7106C4.79292 74.5366 3.95577 74.1576 4.21985 71.8738C3.33958 71.0051 3.24213 70.2905 2.92215 69.1249C2.0884 68.4829 1.53806 68.1994 1.38976 67.1048C1.3273 66.6445 1.33037 65.6288 1.21121 65.2828C0.68638 63.758 0.0505231 63.4641 0.00274686 61.7245C-0.0543477 59.6442 0.794962 58.0379 1.02816 56.0411C1.21824 54.4133 0.983384 52.6289 1.17449 50.9809C1.48428 48.1705 1.99616 45.329 2.43262 42.5401C2.9276 39.3773 3.38388 36.2521 4.19884 33.1783C5.45192 28.4517 8.99463 27.141 13.1655 25.5481C13.8388 25.291 14.5237 24.9445 15.1921 24.6656C15.4773 24.541 16.2888 24.3127 16.4222 24.1408C16.7416 23.729 16.652 22.4826 16.6496 21.9285C14.4108 20.6393 13.662 19.6551 12.8811 17.2308C12.482 17.0655 12.1516 16.9532 11.8346 16.6479C10.5508 15.4121 10.4676 13.5331 11.4724 12.1279Z" fill="#121212"/>
<path id="Vector_2" d="M26.1224 24.4521C26.7999 24.7097 27.3322 25.0007 28.0658 25.2553C30.3512 26.048 32.7147 26.7291 34.8611 27.8574C37.0698 28.991 38.4731 30.7916 39.1183 33.2489C40.8114 39.7001 42.45 46.6843 42.6395 53.3775C42.6964 55.3904 42.0251 57.7056 41.6935 59.668C41.4368 61.1846 41.1936 62.7402 40.6179 64.1591C40.1804 65.1663 39.2446 65.8672 38.6658 66.7654C38.3586 67.2431 38.3025 67.9752 37.9235 68.4427C37.6708 68.8154 37.1212 68.8636 36.7982 69.0942C36.168 69.5435 35.7724 70.608 35.4075 71.2903C33.5652 69.7291 32.5023 69.4811 31.2854 67.379C31.7331 66.5324 32.1461 65.9409 31.9179 64.9762C31.8081 64.5081 31.8184 64.0668 31.9211 63.6024C32.1224 62.6985 33.0116 61.9303 33.277 61.0657C33.6829 59.7432 33.4704 58.2896 33.6765 56.9317C33.829 55.9007 34.5428 54.9002 34.6194 53.8707C34.6408 53.2728 34.3975 52.6853 34.3138 52.0963C33.6655 47.5503 33.9624 42.9765 33.8858 38.4127C33.844 38.3672 33.8021 38.3217 33.761 38.2761C33.4507 38.2541 33.596 38.2268 33.3109 38.3752C32.8466 39.1909 33.0653 48.0016 33.194 49.5372C33.2857 50.621 33.6221 52.9311 33.8147 54.0661C33.2951 55.3038 32.9129 56.121 32.7084 57.4613C32.5086 58.5318 32.83 60.3138 32.2622 61.2582C31.1693 63.0773 30.6963 63.3937 31.208 65.5882C31.0753 65.9603 30.87 66.3516 30.6955 66.7101C29.1279 67.2345 27.5746 67.9507 26.011 68.5153C19.5511 70.8449 14.9842 70.8978 8.59806 68.3645C7.98439 68.0992 7.51437 67.8804 6.95124 67.5274L6.95211 67.4492C6.95519 66.7117 7.0772 66.0018 7.17962 65.2714C6.21762 63.8033 6.73937 63.293 7.46091 61.9058C7.36338 61.3323 6.93134 60.116 6.95716 59.6528C7.08888 57.2918 7.96165 54.9807 8.18316 52.5821C8.30074 51.1599 8.36131 49.7336 8.36487 48.3065C8.35713 46.8984 7.90266 36.6891 7.52392 36.2375C7.20244 36.158 7.3434 36.1329 7.08091 36.2734C6.96072 36.4812 6.91318 36.6885 6.92297 36.9299C7.16698 42.9381 8.07568 49.0734 6.95172 55.0419C6.64216 56.6858 6.12428 58.0007 6.05352 59.7115C5.62859 59.5415 3.93131 58.8948 3.81949 59.6033C4.1071 59.9625 5.35181 60.0876 6.17206 60.5288C6.34421 60.8931 6.50104 61.3577 6.64342 61.7413C5.5238 63.4755 5.54528 63.8597 6.35937 65.7304C5.76584 65.9154 5.29692 66.0715 4.75709 66.3871C4.33855 66.6319 2.9855 67.7422 3.50495 68.2942C3.7346 68.2334 4.07464 67.7628 4.31281 67.5432C4.90555 66.9975 5.35899 66.7685 6.07461 66.4021C6.06324 67.0647 6.0855 67.4445 6.274 68.0692C5.49584 69.2197 5.07004 69.962 4.45629 71.1774C4.07756 70.3087 3.77266 69.395 3.47685 68.494C3.08934 68.2531 2.51966 67.8607 2.29476 67.4524C1.91373 66.7614 2.23561 65.8068 2.04206 65.2115C1.61784 63.9068 0.762286 63.1059 0.75431 61.5979C0.744992 59.8328 1.56967 58.0992 1.80657 56.3953C2.01355 54.9064 1.72555 52.9979 1.90592 51.4951C2.22985 48.7959 2.69442 46.0577 3.12346 43.3675C3.66692 39.9603 4.08767 36.5977 5.03372 33.2792C6.58885 27.8242 11.2014 27.5909 15.5717 25.309C17.5339 29.0154 24.0281 27.7166 26.1224 24.4521Z" fill="#EADDD6"/>
<path id="Vector_3" d="M28.8369 63.8955L29.1978 63.9006C29.4284 64.0607 29.366 63.9573 29.4268 64.1971C29.2862 64.4608 29.1678 64.4951 28.8977 64.6056C21.4162 67.6573 16.4653 69.1987 8.62385 65.9722C8.28989 65.7992 8.20539 65.7721 8.0345 65.4529C8.15809 65.2678 8.23517 65.2604 8.49734 65.3111C8.86573 65.3823 9.30109 65.5152 9.64619 65.6635C16.6484 68.6744 22.1324 66.5509 28.8369 63.8955Z" fill="#121212"/>
<path id="Vector_4" d="M26.878 25.4798L27.0548 25.5122C27.4142 25.9739 26.5202 26.6647 26.1878 26.9836C24.4054 28.695 21.7513 29.4784 19.3174 29.3242C17.4077 29.2032 15.9658 28.5427 14.7028 27.1168C14.6165 26.9603 14.5801 26.8528 14.515 26.688C14.5512 26.3884 14.4796 26.4871 14.6636 26.3331C14.8512 26.3986 15.4095 27.113 15.6392 27.3144C18.0799 29.4552 22.1303 29.0264 24.7245 27.4C25.6089 26.8452 26.1893 26.2228 26.878 25.4798Z" fill="#121212"/>
<path id="Vector_5" d="M32.7088 65.7765C33.8255 65.8512 36.5688 67.6687 36.4259 68.8398C35.652 68.783 35.0621 67.5455 34.3048 67.0962C33.7528 66.7692 33.1961 66.6026 32.6891 66.2307C32.5864 65.9724 32.6125 66.1138 32.7088 65.7765Z" fill="#121212"/>
<path id="Vector_6" d="M37.5823 51.813C37.752 51.8163 37.711 51.82 37.8792 51.8781L37.9408 52.0407C37.786 52.4013 35.8023 53.6544 35.274 54.0646L35.0789 54.0877C34.9313 53.8759 34.9771 53.9941 34.9684 53.7101C35.3032 52.9302 36.8281 52.1394 37.5823 51.813Z" fill="#121212"/>
<path id="Vector_7" d="M30.2876 67.7635C30.6667 67.8448 33.921 72.6778 34.8536 73.4074C34.6396 76.1034 34.7612 78.5286 34.7936 81.2301L34.9342 92.9096C35.0431 104.862 35.2153 116.813 35.4506 128.762C32.115 130.414 28.2897 130.601 24.9288 128.958C24.9248 125.656 24.8688 122.906 24.6358 119.58C23.8366 108.956 22.6671 98.3632 21.1296 87.82C20.8153 85.6595 20.4749 83.502 20.1085 81.3493C19.9593 80.4672 19.8242 79.5567 19.6254 78.6857C19.5141 78.2 18.7056 77.1774 18.1793 77.1727C17.94 77.3669 18.0021 77.2485 17.9411 77.5099C18.0131 77.7555 18.261 78.1471 18.4407 78.3177C19.0525 78.9116 18.9455 80.0029 19.1157 80.7918C19.8937 84.3975 19.7463 87.9859 19.784 91.6745L20.0817 111.293C20.1575 116.756 20.1851 122.727 20.5302 128.183C19.7942 128.549 19.0169 128.827 18.2149 129.009C15.5346 129.624 12.2768 129.54 9.88157 128.046C9.86341 127.661 9.8623 127.185 9.89081 126.801C10.1532 123.271 9.77733 119.894 9.4872 116.376C9.04426 111.151 8.56611 105.928 8.05289 100.709L6.44563 83.3338L6.0064 78.7212C5.81285 76.5678 5.70048 75.3666 4.97973 73.3419C4.54019 72.1068 6.24008 69.6477 6.98151 68.5421C10.5552 70.1326 13.3441 71.0028 17.3129 71.1292C17.2963 72.2624 17.4189 73.3837 17.4396 74.5154C17.4477 74.9584 17.4886 75.3493 17.9956 75.4251L17.8763 75.4346L18.0302 75.399C18.1864 75.1116 17.9903 71.881 18.0026 71.1552C22.7777 70.852 25.9499 69.4858 30.2876 67.7635Z" fill="#FEFEFE"/>
<path id="Vector_8" d="M14.0123 10.4548L14.0578 10.6807C14.4619 11.0846 14.9741 10.5622 15.4891 10.5838C15.7191 10.5934 15.9138 10.6515 16.201 10.6655C16.4053 10.4891 16.3369 10.599 16.386 10.3094C16.2576 9.97708 16.1893 10.0558 15.7647 9.83352C15.9401 9.50169 16.7376 8.96802 17.0534 8.56212C17.7507 7.66582 18.8604 5.14103 20.1741 5.25C20.5728 5.49196 20.6952 6.84012 20.9037 7.44747C21.0704 7.93558 21.3057 8.39747 21.6026 8.81908C21.8782 9.21053 22.3931 9.85484 22.8677 9.93468C23.0572 9.85413 23.1457 9.81954 23.3431 9.76245C23.5997 9.85934 24.2568 10.5194 24.6413 10.7545C24.7693 11.3273 24.9177 12.5891 25.1799 12.9313C25.9064 13.1717 26.5074 11.555 27.4558 12.2898C27.7772 12.5425 27.9801 12.9152 28.0196 13.3217C28.1855 15.1785 27.1652 16.0912 25.4286 16.2378C25.0662 16.7124 24.5805 18.3242 24.0483 18.9403C23.6345 19.4195 23.8816 21.5155 23.9511 22.1682C24.0499 23.1026 24.3973 23.7353 25.1949 24.3208C25.0322 24.4947 24.864 24.6637 24.6903 24.8274C23.347 26.0842 21.5584 26.7547 19.7195 26.6907C18.3381 26.6421 17.3933 26.2689 16.4503 25.2572C17.5536 24.3888 17.4504 23.5592 17.4661 22.2596C17.724 22.2855 17.9825 22.3045 18.2414 22.3166C18.7183 22.3398 19.7563 22.4124 19.746 21.7675C19.6782 21.6705 19.5936 21.5156 19.4479 21.5225C13.4022 21.8117 13.1304 15.406 13.068 10.7316C13.3586 10.5866 13.605 10.4361 13.8816 10.2701L14.0123 10.4548Z" fill="#FAF7F2"/>
<path id="Vector_9" d="M19.7284 17.6378C19.8666 17.6029 19.9163 17.5811 19.9905 17.6518C20.0408 17.6997 20.0521 17.8187 20.0521 17.8187C19.7773 18.704 18.5716 18.6046 17.584 18.3626C17.3549 18.3064 16.7484 17.7735 16.9823 17.4998C17.2161 17.2262 18.311 17.9227 18.7761 17.8698C19.1404 17.8285 19.3856 17.7432 19.7284 17.6378Z" fill="#121212"/>
<path id="Vector_10" d="M20.5453 9.82106C21.1589 9.77865 22.4706 9.77984 22.4698 10.6638L22.334 10.7683L22.105 10.7272C21.2016 10.3498 20.6117 10.6044 20.0644 10.3516L20.0202 10.206C20.1339 9.97931 20.3092 9.93493 20.5453 9.82106Z" fill="#121212"/>
<path id="Vector_11" d="M17.779 13.6149C17.9514 13.6786 17.9397 13.6791 18.0725 13.8093C18.1421 14.2834 17.8038 14.823 17.5848 15.2577C17.8692 15.4475 17.9278 15.475 18.1483 15.7269C18.2014 16.0551 18.2156 15.8941 18.0677 16.2225C16.6067 15.6395 17.0567 14.689 17.779 13.6149Z" fill="#121212"/>
<path id="Vector_12" d="M21.0194 12.1406C21.8454 12.4906 21.8651 13.098 21.1781 13.6301C20.3766 13.356 20.2913 12.6133 21.0194 12.1406Z" fill="#121212"/>
<path id="Vector_13" d="M15.4817 12.2021C16.3771 12.5183 16.1819 13.1186 15.6824 13.6838C14.8057 13.4534 14.9654 12.7104 15.4817 12.2021Z" fill="#121212"/>
<path id="Vector_14" d="M19.9825 133.25L20.0733 133.389C20.1176 134.415 19.962 134.603 18.9386 134.995C17.8585 135.435 16.4649 135.462 15.3955 135.856C12.2988 136.997 7.17811 138.602 4.09666 136.741C3.83717 136.307 3.89174 135.892 3.90003 135.395C7.86972 136.959 11.8931 135.653 15.7248 134.481C17.2091 134.027 18.4174 133.775 19.9825 133.25Z" fill="#FEFEFE"/>
<path id="Vector_15" d="M34.4066 134.488C34.5527 134.697 34.4911 135.301 34.4856 135.596C33.493 136.795 30.7788 138.223 29.2958 138.706C27.3768 139.333 24.2425 139.578 22.4523 138.492C22.2944 138.245 22.1159 137.682 22.2454 137.404C22.7153 137.133 23.8469 137.658 24.545 137.731C28.3442 138.134 31.4785 136.757 34.4066 134.488Z" fill="#FEFEFE"/>
<path id="Vector_16" d="M12.0012 12.7479L12.1623 12.8243C12.3222 13.1505 12.6706 15.9457 12.5962 16.2753L12.4493 16.2362C11.6024 15.1505 11.1818 13.9891 12.0012 12.7479Z" fill="#FAF7F2"/>
<path id="Vector_17" d="M26.2139 131.501C27.0312 131.481 28.3547 131.563 29.0489 132.003C29.2036 132.255 29.1799 132.126 29.1484 132.399L29.0117 132.427C28.4234 132.247 27.9038 132.1 27.3005 131.986C26.9049 131.912 26.3529 131.953 26.0441 131.836L26.0062 131.701L26.2139 131.501Z" fill="#FEFEFE"/>
<path id="Vector_18" d="M25.3376 133.011C26.0443 132.974 28.0604 133.084 28.4055 133.749L28.34 133.931C27.8732 133.797 27.4847 133.689 27.003 133.598C26.6477 133.53 25.3778 133.461 25.2041 133.234L25.3376 133.011Z" fill="#D8D6D7"/>
<path id="Vector_19" d="M8.77265 131.667C9.39524 131.699 10.5159 131.834 10.9475 132.31C10.9649 132.585 10.9572 132.499 10.7417 132.785C10.2345 132.526 8.73964 132.067 8.611 131.857L8.77265 131.667Z" fill="#D8D6D7"/>
<path id="Vector_20" d="M10.2796 130.295C10.8609 130.323 12.4255 130.658 12.6365 131.255L12.5362 131.458C11.8727 131.119 10.4295 130.918 10.1559 130.516L10.2796 130.295Z" fill="#FEFEFE"/>
<path id="Vector_21" d="M13.8815 10.2699C14.1357 10.052 14.306 9.85232 14.6251 9.79704L14.6904 9.88801C14.5628 10.1537 14.2718 10.2907 14.0123 10.4545L13.8815 10.2699Z" fill="#D8D6D7"/>
</g>
</svg>
